STARTFONT 2.1
FONT vply-36
SIZE 34 75 75
FONTBOUNDINGBOX 16 36 0 -9

STARTPROPERTIES 10
COPYRIGHT "Public domain font.  Share and enjoy."
POINT_SIZE 340
WEIGHT 10
RESOLUTION_X 75
RESOLUTION_Y 75
X_HEIGHT 27
QUAD_WIDTH 10
DEFAULT_CHAR 0
FONT_DESCENT 9
FONT_ASCENT 27
ENDPROPERTIES

CHARS 82

STARTCHAR C032
ENCODING 26
SWIDTH 294 0
DWIDTH 10 0
BBX 10 36 0 -9
BITMAP
0000
0000
0000
0000
0000
0000
0000
0000
0000
0000
0000
0000
0000
0000
0600
0600
0C00
FE00
FE00
1800
3000
FE00
FE00
6000
C000
C000
0000
0000
0000
0000
0000
0000
0000
0000
0000
0000
ENDCHAR

STARTCHAR C034
ENCODING 28
SWIDTH 382 0
DWIDTH 13 0
BBX 13 36 0 -9
BITMAP
0000
0000
0000
0000
0000
0000
0000
0000
0000
0000
0000
0000
0000
0180
0780
1E00
7800
E000
E000
7800
1E00
0780
0180
0000
FF80
FF80
0000
0000
0000
0000
0000
0000
0000
0000
0000
0000
ENDCHAR

STARTCHAR C035
ENCODING 29
SWIDTH 382 0
DWIDTH 13 0
BBX 13 36 0 -9
BITMAP
0000
0000
0000
0000
0000
0000
0000
0000
0000
0000
0000
0000
0000
C000
F000
3C00
0F00
0380
0380
0F00
3C00
F000
C000
0000
FF80
FF80
0000
0000
0000
0000
0000
0000
0000
0000
0000
0000
ENDCHAR

STARTCHAR C040
ENCODING 32
SWIDTH 294 0
DWIDTH 10 0
BBX 10 36 0 -9
BITMAP
0000
0000
0000
0000
0000
0000
0000
0000
0000
0000
0000
0000
0000
0000
0000
0000
0000
0000
0000
0000
0000
0000
0000
0000
0000
0000
0000
0000
0000
0000
0000
0000
0000
0000
0000
0000
ENDCHAR

STARTCHAR !
ENCODING 33
SWIDTH 176 0
DWIDTH 6 0
BBX 6 36 0 -9
BITMAP
00
00
00
00
00
00
00
00
00
E0
E0
E0
E0
E0
E0
E0
E0
E0
E0
C0
C0
C0
00
C0
C0
C0
C0
00
00
00
00
00
00
00
00
00
ENDCHAR

STARTCHAR "
ENCODING 34
SWIDTH 264 0
DWIDTH 9 0
BBX 9 36 0 -9
BITMAP
0000
0000
0000
0000
0000
0000
0000
EC00
CC00
DC00
DC00
DC00
DC00
CC00
0000
0000
0000
0000
0000
0000
0000
0000
0000
0000
0000
0000
0000
0000
0000
0000
0000
0000
0000
0000
0000
0000
ENDCHAR

STARTCHAR $
ENCODING 36
SWIDTH 352 0
DWIDTH 12 0
BBX 12 36 0 -9
BITMAP
0000
0000
0000
0000
0000
0000
7E00
FF00
FF00
FF00
DB00
DB00
DB00
DB00
F800
F800
7800
3E00
1F00
1F00
1B00
DB00
DB00
DB00
FF00
FE00
7C00
0000
0000
0000
0000
0000
0000
0000
0000
0000
ENDCHAR

STARTCHAR %
ENCODING 37
SWIDTH 382 0
DWIDTH 13 0
BBX 13 36 0 -9
BITMAP
0000
0000
0000
0000
0000
0000
0000
7380
D380
D780
7700
0700
0F00
0E00
0E00
1E00
1C00
1C00
3C00
3800
3800
7800
7000
7380
F680
E680
E380
0000
0000
0000
0000
0000
0000
0000
0000
0000
ENDCHAR

STARTCHAR &
ENCODING 38
SWIDTH 411 0
DWIDTH 14 0
BBX 14 36 0 -9
BITMAP
0000
0000
0000
0000
0000
0000
0000
0000
0000
1F00
1F00
3F80
3B80
3B80
3F80
3F00
1E00
3C00
7E00
EEE0
E7E0
E7C0
E380
E780
FFC0
FDC0
78E0
0000
0000
0000
0000
0000
0000
0000
0000
0000
ENDCHAR

STARTCHAR '
ENCODING 39
SWIDTH 176 0
DWIDTH 6 0
BBX 6 36 0 -9
BITMAP
00
00
00
00
00
00
00
E0
C0
C0
C0
E0
E0
C0
00
00
00
00
00
00
00
00
00
00
00
00
00
00
00
00
00
00
00
00
00
00
ENDCHAR

STARTCHAR (
ENCODING 40
SWIDTH 323 0
DWIDTH 11 0
BBX 11 36 0 -9
BITMAP
0000
0000
0000
0000
0000
0000
0000
0F00
3F00
7800
7000
F000
F000
F000
F000
F000
F000
F000
F000
F000
F000
F000
F000
7000
7800
3F00
0F00
0000
0000
0000
0000
0000
0000
0000
0000
0000
ENDCHAR

STARTCHAR )
ENCODING 41
SWIDTH 323 0
DWIDTH 11 0
BBX 11 36 0 -9
BITMAP
0000
0000
0000
0000
0000
0000
0000
F000
FC00
1E00
0E00
0F00
0F00
0F00
0F00
0F00
0F00
0F00
0F00
0F00
0F00
0F00
0F00
0E00
1E00
FC00
F000
0000
0000
0000
0000
0000
0000
0000
0000
0000
ENDCHAR

STARTCHAR *
ENCODING 42
SWIDTH 323 0
DWIDTH 11 0
BBX 11 36 0 -9
BITMAP
0000
0000
0000
0000
0000
0000
0000
0000
0000
0000
E380
E380
7700
3E00
FF80
FF80
3E00
7700
E380
E380
0000
0000
0000
0000
0000
0000
0000
0000
0000
0000
0000
0000
0000
0000
0000
0000
ENDCHAR

STARTCHAR +
ENCODING 43
SWIDTH 294 0
DWIDTH 10 0
BBX 10 36 0 -9
BITMAP
0000
0000
0000
0000
0000
0000
0000
0000
0000
0000
0000
0000
0000
0000
0000
3800
3800
3800
3800
FE00
FE00
FE00
3800
3800
3800
3800
0000
0000
0000
0000
0000
0000
0000
0000
0000
0000
ENDCHAR

STARTCHAR ,
ENCODING 44
SWIDTH 205 0
DWIDTH 7 0
BBX 7 36 0 -9
BITMAP
00
00
00
00
00
00
00
00
00
00
00
00
00
00
00
00
00
00
00
00
00
00
E0
E0
E0
E0
E0
C0
80
00
00
00
00
00
00
00
ENDCHAR

STARTCHAR -
ENCODING 45
SWIDTH 294 0
DWIDTH 10 0
BBX 10 36 0 -9
BITMAP
0000
0000
0000
0000
0000
0000
0000
0000
0000
0000
0000
0000
0000
0000
0000
0000
0000
0000
0000
FE00
FE00
FE00
0000
0000
0000
0000
0000
0000
0000
0000
0000
0000
0000
0000
0000
0000
ENDCHAR

STARTCHAR .
ENCODING 46
SWIDTH 147 0
DWIDTH 5 0
BBX 5 36 0 -9
BITMAP
00
00
00
00
00
00
00
00
00
00
00
00
00
00
00
00
00
00
00
00
00
00
00
C0
C0
C0
C0
00
00
00
00
00
00
00
00
00
ENDCHAR

STARTCHAR /
ENCODING 47
SWIDTH 352 0
DWIDTH 12 0
BBX 12 36 0 -9
BITMAP
0000
0000
0000
0000
0000
0000
0000
0380
0380
0780
0700
0700
0F00
0E00
0E00
1E00
1C00
1C00
3C00
3800
3800
7800
7000
7000
F000
E000
E000
0000
0000
0000
0000
0000
0000
0000
0000
0000
ENDCHAR

STARTCHAR 0
ENCODING 48
SWIDTH 264 0
DWIDTH 9 0
BBX 9 36 0 -9
BITMAP
0000
0000
0000
0000
0000
0000
0000
0000
7800
FC00
FC00
FC00
FC00
CC00
CC00
CC00
CC00
CC00
CC00
CC00
CC00
CC00
FC00
FC00
FC00
FC00
7800
0000
0000
0000
0000
0000
0000
0000
0000
0000
ENDCHAR

STARTCHAR 1
ENCODING 49
SWIDTH 264 0
DWIDTH 9 0
BBX 9 36 0 -9
BITMAP
0000
0000
0000
0000
0000
0000
0000
0000
0000
3800
7800
7800
F800
3800
3800
3800
3800
3800
3800
3800
3800
3800
3800
7C00
7C00
7C00
7C00
0000
0000
0000
0000
0000
0000
0000
0000
0000
ENDCHAR

STARTCHAR 2
ENCODING 50
SWIDTH 323 0
DWIDTH 11 0
BBX 11 36 0 -9
BITMAP
0000
0000
0000
0000
0000
0000
0000
0000
0000
7E00
7E00
FF00
FF00
FF00
E700
E700
C700
1F00
3E00
7C00
6000
E300
E700
FF00
FF00
FF00
FF00
0000
0000
0000
0000
0000
0000
0000
0000
0000
ENDCHAR

STARTCHAR 3
ENCODING 51
SWIDTH 323 0
DWIDTH 11 0
BBX 11 36 0 -9
BITMAP
0000
0000
0000
0000
0000
0000
0000
0000
0000
FF00
FF00
FF00
FF00
FF00
C600
0E00
1C00
3E00
3E00
0600
C700
C700
FF00
FF00
FE00
FE00
7C00
0000
0000
0000
0000
0000
0000
0000
0000
0000
ENDCHAR

STARTCHAR :
ENCODING 58
SWIDTH 147 0
DWIDTH 5 0
BBX 5 36 0 -9
BITMAP
00
00
00
00
00
00
00
00
00
00
00
00
00
00
C0
C0
C0
C0
00
00
00
00
00
C0
C0
C0
C0
00
00
00
00
00
00
00
00
00
ENDCHAR

STARTCHAR ;
ENCODING 59
SWIDTH 205 0
DWIDTH 7 0
BBX 7 36 0 -9
BITMAP
00
00
00
00
00
00
00
00
00
00
00
00
00
E0
E0
E0
C0
00
00
00
00
00
E0
E0
E0
E0
E0
C0
80
00
00
00
00
00
00
00
ENDCHAR

STARTCHAR <
ENCODING 60
SWIDTH 352 0
DWIDTH 12 0
BBX 12 36 0 -9
BITMAP
0000
0000
0000
0000
0000
0000
0000
0000
0000
0000
0000
0000
0000
0000
0000
0180
0780
1E00
7800
E000
E000
7800
1E00
0780
0180
0000
0000
0000
0000
0000
0000
0000
0000
0000
0000
0000
ENDCHAR

STARTCHAR =
ENCODING 61
SWIDTH 294 0
DWIDTH 10 0
BBX 10 36 0 -9
BITMAP
0000
0000
0000
0000
0000
0000
0000
0000
0000
0000
0000
0000
0000
0000
0000
0000
0000
FE00
FE00
0000
0000
FE00
FE00
0000
0000
0000
0000
0000
0000
0000
0000
0000
0000
0000
0000
0000
ENDCHAR

STARTCHAR >
ENCODING 62
SWIDTH 352 0
DWIDTH 12 0
BBX 12 36 0 -9
BITMAP
0000
0000
0000
0000
0000
0000
0000
0000
0000
0000
0000
0000
0000
0000
0000
C000
F000
3C00
0F00
0380
0380
0F00
3C00
F000
C000
0000
0000
0000
0000
0000
0000
0000
0000
0000
0000
0000
ENDCHAR

STARTCHAR ?
ENCODING 63
SWIDTH 264 0
DWIDTH 9 0
BBX 9 36 0 -9
BITMAP
0000
0000
0000
0000
0000
0000
0000
0000
3000
7800
FC00
FC00
FC00
FC00
DC00
DC00
1C00
1C00
3800
3000
3000
2000
0000
7000
7000
7000
2000
0000
0000
0000
0000
0000
0000
0000
0000
0000
ENDCHAR

STARTCHAR A
ENCODING 65
SWIDTH 352 0
DWIDTH 12 0
BBX 12 36 0 -9
BITMAP
0000
0000
0000
0000
0000
0000
0000
1E00
1E00
1E00
1E00
3F00
3F00
3300
3300
3F00
3F00
3300
7380
6180
6180
7380
F3C0
F3C0
F3C0
F3C0
F3C0
0000
0000
0000
0000
0000
0000
0000
0000
0000
ENDCHAR

STARTCHAR B
ENCODING 66
SWIDTH 323 0
DWIDTH 11 0
BBX 11 36 0 -9
BITMAP
0000
0000
0000
0000
0000
0000
0000
FC00
FE00
FF00
FF00
FF00
6700
6700
6700
6600
7E00
7E00
6600
6700
6700
6700
FF00
FF00
FF00
FE00
FC00
0000
0000
0000
0000
0000
0000
0000
0000
0000
ENDCHAR

STARTCHAR C
ENCODING 67
SWIDTH 294 0
DWIDTH 10 0
BBX 10 36 0 -9
BITMAP
0000
0000
0000
0000
0000
0000
3C00
7E00
FF00
FF00
FF00
E700
E700
E700
E000
E000
E000
E000
E000
E700
E700
E700
E700
FF00
FF00
7E00
3C00
0000
0000
0000
0000
0000
0000
0000
0000
0000
ENDCHAR

STARTCHAR D
ENCODING 68
SWIDTH 352 0
DWIDTH 12 0
BBX 12 36 0 -9
BITMAP
0000
0000
0000
0000
0000
0000
0000
FF00
FF80
FF80
FFC0
39C0
39C0
39C0
39C0
39C0
39C0
39C0
39C0
39C0
39C0
39C0
39C0
FFC0
FFC0
FF80
FF00
0000
0000
0000
0000
0000
0000
0000
0000
0000
ENDCHAR

STARTCHAR E
ENCODING 69
SWIDTH 323 0
DWIDTH 11 0
BBX 11 36 0 -9
BITMAP
0000
0000
0000
0000
0000
0000
0000
FF80
FF80
FF80
FF80
7380
7380
7380
7380
7000
7E00
7E00
7000
7380
7380
7380
7380
FF80
FF80
FF80
FF80
0000
0000
0000
0000
0000
0000
0000
0000
0000
ENDCHAR

STARTCHAR F
ENCODING 70
SWIDTH 323 0
DWIDTH 11 0
BBX 11 36 0 -9
BITMAP
0000
0000
0000
0000
0000
0000
0000
FF80
FF80
FF80
FF80
7980
7980
7980
7980
7980
7800
7F00
7F00
7800
7800
7800
7800
FC00
FC00
FC00
FC00
0000
0000
0000
0000
0000
0000
0000
0000
0000
ENDCHAR

STARTCHAR G
ENCODING 71
SWIDTH 323 0
DWIDTH 11 0
BBX 11 36 0 -9
BITMAP
0000
0000
0000
0000
0000
0000
7E00
FF00
FF00
FF00
E700
E700
E700
E000
E000
E000
EF80
EF80
E700
E700
E700
E700
E700
FF00
FF00
FF00
7B00
0000
0000
0000
0000
0000
0000
0000
0000
0000
ENDCHAR

STARTCHAR H
ENCODING 72
SWIDTH 470 0
DWIDTH 16 0
BBX 16 36 0 -9
BITMAP
0000
0000
0000
0000
0000
0000
FCFC
FCFC
FCFC
FCFC
7878
7878
7878
7878
7878
7FF8
7FF8
7FF8
7878
7878
7878
7878
7878
FCFC
FCFC
FCFC
FCFC
0000
0000
0000
0000
0000
0000
0000
0000
0000
ENDCHAR

STARTCHAR I
ENCODING 73
SWIDTH 235 0
DWIDTH 8 0
BBX 8 36 0 -9
BITMAP
00
00
00
00
00
00
FC
FC
FC
FC
78
78
78
78
78
78
78
78
78
78
78
78
78
FC
FC
FC
FC
00
00
00
00
00
00
00
00
00
ENDCHAR

STARTCHAR J
ENCODING 74
SWIDTH 323 0
DWIDTH 11 0
BBX 11 36 0 -9
BITMAP
0000
0000
0000
0000
0000
0000
0F80
0F80
0F80
0F80
0700
0700
0700
0700
0700
0700
0700
E700
E700
E700
E700
E700
E700
FF00
FF00
7E00
3C00
0000
0000
0000
0000
0000
0000
0000
0000
0000
ENDCHAR

STARTCHAR K
ENCODING 75
SWIDTH 352 0
DWIDTH 12 0
BBX 12 36 0 -9
BITMAP
0000
0000
0000
0000
0000
0000
F3C0
F3C0
F3C0
F3C0
71C0
7380
7300
7700
7E00
7E00
7C00
7E00
7E00
7700
7300
7380
7180
F3C0
F3C0
F3C0
F3C0
0000
0000
0000
0000
0000
0000
0000
0000
0000
ENDCHAR

STARTCHAR L
ENCODING 76
SWIDTH 323 0
DWIDTH 11 0
BBX 11 36 0 -9
BITMAP
0000
0000
0000
0000
0000
0000
F800
F800
F800
F800
7000
7000
7000
7000
7000
7000
7000
7000
7380
7380
7380
7380
7380
FF80
FF80
FF80
FF80
0000
0000
0000
0000
0000
0000
0000
0000
0000
ENDCHAR

STARTCHAR M
ENCODING 77
SWIDTH 441 0
DWIDTH 15 0
BBX 15 36 0 -9
BITMAP
0000
0000
0000
0000
0000
0000
F8F8
F8F8
F8F8
F8F8
7070
78F0
7DF0
7DF0
7DF0
7FF0
7FF0
7FF0
7FF0
7770
7770
7270
7270
F8F8
F8F8
F8F8
F8F8
0000
0000
0000
0000
0000
0000
0000
0000
0000
ENDCHAR

STARTCHAR N
ENCODING 78
SWIDTH 382 0
DWIDTH 13 0
BBX 13 36 0 -9
BITMAP
0000
0000
0000
0000
0000
0000
F3E0
F3E0
F3E0
F3E0
71C0
79C0
79C0
7DC0
7DC0
7FC0
7FC0
7FC0
77C0
77C0
73C0
73C0
71C0
F9E0
F9E0
F9E0
F9E0
0000
0000
0000
0000
0000
0000
0000
0000
0000
ENDCHAR

STARTCHAR O
ENCODING 79
SWIDTH 294 0
DWIDTH 10 0
BBX 10 36 0 -9
BITMAP
0000
0000
0000
0000
0000
0000
3C00
7E00
FF00
FF00
E700
E700
E700
E700
E700
E700
E700
E700
E700
E700
E700
E700
E700
FF00
FF00
7E00
3C00
0000
0000
0000
0000
0000
0000
0000
0000
0000
ENDCHAR

STARTCHAR P
ENCODING 80
SWIDTH 323 0
DWIDTH 11 0
BBX 11 36 0 -9
BITMAP
0000
0000
0000
0000
0000
0000
0000
FE00
FF00
FF80
FF80
7380
7380
7380
7380
7380
7F80
7F00
7E00
7000
7000
7000
7000
F800
F800
F800
F800
0000
0000
0000
0000
0000
0000
0000
0000
0000
ENDCHAR

STARTCHAR Q
ENCODING 81
SWIDTH 323 0
DWIDTH 11 0
BBX 11 36 0 -9
BITMAP
0000
0000
0000
0000
0000
0000
3C00
7E00
FF00
FF00
E700
E700
E700
E700
E700
E700
E700
E700
F700
FF00
FF00
FF00
EF00
E780
FF80
FF80
7980
0000
0000
0000
0000
0000
0000
0000
0000
0000
ENDCHAR

STARTCHAR R
ENCODING 82
SWIDTH 382 0
DWIDTH 13 0
BBX 13 36 0 -9
BITMAP
0000
0000
0000
0000
0000
0000
FF00
FF80
FF80
FF80
7380
7380
7380
7380
7380
7F80
7F80
7F80
7380
7380
73A0
73E0
71E0
F9E0
F9E0
F9E0
F8C0
0000
0000
0000
0000
0000
0000
0000
0000
0000
ENDCHAR

STARTCHAR S
ENCODING 83
SWIDTH 294 0
DWIDTH 10 0
BBX 10 36 0 -9
BITMAP
0000
0000
0000
0000
0000
0000
7E00
FF00
FF00
FF00
E700
E700
E700
E700
E000
F000
7800
1E00
0F00
E700
E700
E700
E700
FF00
FF00
FE00
DC00
0000
0000
0000
0000
0000
0000
0000
0000
0000
ENDCHAR

STARTCHAR T
ENCODING 84
SWIDTH 382 0
DWIDTH 13 0
BBX 13 36 0 -9
BITMAP
0000
0000
0000
0000
0000
0000
FFE0
FFE0
FFE0
FFE0
CE60
CE60
CE60
0E00
0E00
0E00
0E00
0E00
0E00
0E00
0E00
0E00
0E00
1F00
1F00
1F00
1F00
0000
0000
0000
0000
0000
0000
0000
0000
0000
ENDCHAR

STARTCHAR U
ENCODING 85
SWIDTH 294 0
DWIDTH 10 0
BBX 10 36 0 -9
BITMAP
0000
0000
0000
0000
0000
0000
E700
E700
E700
E700
E700
E700
E700
E700
E700
E700
E700
E700
E700
E700
E700
E700
FF00
FF00
7E00
7E00
3C00
0000
0000
0000
0000
0000
0000
0000
0000
0000
ENDCHAR

STARTCHAR V
ENCODING 86
SWIDTH 411 0
DWIDTH 14 0
BBX 14 36 0 -9
BITMAP
0000
0000
0000
0000
0000
0000
F9F0
F9F0
F9F0
F9F0
70E0
70E0
70E0
70E0
70E0
79E0
79E0
39C0
39C0
39C0
3FC0
1F80
1F80
1F80
0F00
0F00
0F00
0000
0000
0000
0000
0000
0000
0000
0000
0000
ENDCHAR

STARTCHAR W
ENCODING 87
SWIDTH 441 0
DWIDTH 15 0
BBX 15 36 0 -9
BITMAP
0000
0000
0000
0000
0000
0000
F8F8
F8F8
F8F8
F8F8
7070
7270
7770
7770
7770
7770
7FF0
7FF0
7FF0
7DF0
7DF0
38E0
38E0
3DE0
3DE0
3DE0
3DE0
0000
0000
0000
0000
0000
0000
0000
0000
0000
ENDCHAR

STARTCHAR X
ENCODING 88
SWIDTH 352 0
DWIDTH 12 0
BBX 12 36 0 -9
BITMAP
0000
0000
0000
0000
0000
0000
F3C0
F3C0
F3C0
F3C0
6180
7380
7380
3300
3F00
1E00
1E00
1E00
3F00
3300
7380
7380
6180
F3C0
F3C0
F3C0
F3C0
0000
0000
0000
0000
0000
0000
0000
0000
0000
ENDCHAR

STARTCHAR Y
ENCODING 89
SWIDTH 411 0
DWIDTH 14 0
BBX 14 36 0 -9
BITMAP
0000
0000
0000
0000
0000
0000
F9F0
F9F0
F9F0
F9F0
70E0
30C0
39C0
19C0
1F80
0F80
0F00
0F00
0F00
0F00
0F00
0F00
0F00
1F80
1F80
1F80
1F80
0000
0000
0000
0000
0000
0000
0000
0000
0000
ENDCHAR

STARTCHAR Z
ENCODING 90
SWIDTH 294 0
DWIDTH 10 0
BBX 10 36 0 -9
BITMAP
0000
0000
0000
0000
0000
0000
FF00
FF00
FF00
FF00
E700
E700
0700
0E00
1E00
1C00
3C00
3800
7800
7000
E000
E700
E700
FF00
FF00
FF00
FF00
0000
0000
0000
0000
0000
0000
0000
0000
0000
ENDCHAR

STARTCHAR [
ENCODING 91
SWIDTH 323 0
DWIDTH 11 0
BBX 11 36 0 -9
BITMAP
0000
0000
0000
0000
0000
0000
FF00
FF00
F000
F000
F000
F000
F000
F000
F000
F000
F000
F000
F000
F000
F000
F000
F000
F000
F000
FF00
FF00
0000
0000
0000
0000
0000
0000
0000
0000
0000
ENDCHAR

STARTCHAR ]
ENCODING 93
SWIDTH 352 0
DWIDTH 12 0
BBX 12 36 0 -9
BITMAP
0000
0000
0000
0000
0000
0000
FF00
FF00
0F00
0F00
0F00
0F00
0F00
0F00
0F00
0F00
0F00
0F00
0F00
0F00
0F00
0F00
0F00
0F00
0F00
FF00
FF00
0000
0000
0000
0000
0000
0000
0000
0000
0000
ENDCHAR

STARTCHAR a
ENCODING 97
SWIDTH 323 0
DWIDTH 11 0
BBX 11 36 0 -9
BITMAP
0000
0000
0000
0000
0000
0000
0000
0000
0000
0000
0000
0000
0000
3800
7C00
FC00
FC00
CC00
0C00
3C00
7C00
CC00
CC00
FE00
FE00
FE00
7600
0000
0000
0000
0000
0000
0000
0000
0000
0000
ENDCHAR

STARTCHAR b
ENCODING 98
SWIDTH 294 0
DWIDTH 10 0
BBX 10 36 0 -9
BITMAP
0000
0000
0000
0000
0000
0000
0000
0000
E000
E000
E000
E000
E000
E000
F800
FC00
FC00
FC00
CC00
CC00
CC00
CC00
CC00
FC00
FC00
FC00
F800
0000
0000
0000
0000
0000
0000
0000
0000
0000
ENDCHAR

STARTCHAR c
ENCODING 99
SWIDTH 294 0
DWIDTH 10 0
BBX 10 36 0 -9
BITMAP
0000
0000
0000
0000
0000
0000
0000
0000
0000
0000
0000
0000
0000
7800
FC00
FC00
FC00
CC00
CC00
C000
C000
CC00
CC00
FC00
FC00
FC00
7800
0000
0000
0000
0000
0000
0000
0000
0000
0000
ENDCHAR

STARTCHAR d
ENCODING 100
SWIDTH 294 0
DWIDTH 10 0
BBX 10 36 0 -9
BITMAP
0000
0000
0000
0000
0000
0000
0000
0000
1C00
1C00
1C00
1C00
1C00
1C00
7C00
FC00
FC00
CC00
CC00
CC00
CC00
CC00
CC00
FC00
FC00
FC00
7C00
0000
0000
0000
0000
0000
0000
0000
0000
0000
ENDCHAR

STARTCHAR e
ENCODING 101
SWIDTH 294 0
DWIDTH 10 0
BBX 10 36 0 -9
BITMAP
0000
0000
0000
0000
0000
0000
0000
0000
0000
0000
0000
0000
0000
7800
FC00
FC00
FC00
CC00
CC00
FC00
FC00
C000
CC00
FC00
FC00
FC00
7800
0000
0000
0000
0000
0000
0000
0000
0000
0000
ENDCHAR

STARTCHAR f
ENCODING 102
SWIDTH 264 0
DWIDTH 9 0
BBX 9 36 0 -9
BITMAP
0000
0000
0000
0000
0000
0000
0000
0000
1E00
3E00
7E00
7E00
7000
7000
7000
FC00
FC00
FC00
7000
7000
7000
7000
7000
7000
7000
7000
7000
0000
0000
0000
0000
0000
0000
0000
0000
0000
ENDCHAR

STARTCHAR g
ENCODING 103
SWIDTH 352 0
DWIDTH 12 0
BBX 12 36 0 -9
BITMAP
0000
0000
0000
0000
0000
0000
0000
0000
0000
0000
0000
0000
0000
0700
0700
0600
3C00
7C00
FE00
E600
E600
E600
E600
FE00
FE00
FC00
F800
C000
FC00
FE00
C600
C600
FE00
FE00
7C00
0000
ENDCHAR

STARTCHAR h
ENCODING 104
SWIDTH 323 0
DWIDTH 11 0
BBX 11 36 0 -9
BITMAP
0000
0000
0000
0000
0000
0000
0000
F000
F000
F000
F000
7000
7000
7E00
7F00
7F00
7F00
7300
7300
7300
7300
7300
7300
F780
F780
F780
F780
0000
0000
0000
0000
0000
0000
0000
0000
0000
ENDCHAR

STARTCHAR i
ENCODING 105
SWIDTH 264 0
DWIDTH 9 0
BBX 9 36 0 -9
BITMAP
0000
0000
0000
0000
0000
0000
0000
0000
3000
3000
3000
3000
0000
7000
7000
7000
7000
7000
7000
7000
7000
7000
7000
F800
F800
F800
F800
0000
0000
0000
0000
0000
0000
0000
0000
0000
ENDCHAR

STARTCHAR j
ENCODING 106
SWIDTH 235 0
DWIDTH 8 0
BBX 8 36 0 -9
BITMAP
00
00
00
00
00
00
00
00
30
30
30
30
00
F0
F0
F0
F0
70
70
70
70
70
70
70
70
70
70
70
F0
F0
F0
E0
00
00
00
00
ENDCHAR

STARTCHAR k
ENCODING 107
SWIDTH 352 0
DWIDTH 12 0
BBX 12 36 0 -9
BITMAP
0000
0000
0000
0000
0000
0000
0000
0000
E000
E000
E000
E000
E000
E700
E700
E700
E700
E700
EE00
FE00
FC00
EE00
E600
E700
E700
E700
E700
0000
0000
0000
0000
0000
0000
0000
0000
0000
ENDCHAR

STARTCHAR l
ENCODING 108
SWIDTH 205 0
DWIDTH 7 0
BBX 7 36 0 -9
BITMAP
00
00
00
00
00
00
00
00
F0
F0
F0
F0
70
70
70
70
70
70
70
70
70
70
70
F8
F8
F8
F8
00
00
00
00
00
00
00
00
00
ENDCHAR

STARTCHAR m
ENCODING 109
SWIDTH 441 0
DWIDTH 15 0
BBX 15 36 0 -9
BITMAP
0000
0000
0000
0000
0000
0000
0000
0000
0000
0000
0000
0000
0000
ED80
FFC0
FFE0
FFE0
EEE0
EEE0
EEE0
EEE0
EEE0
EEE0
EEF0
EEF0
EEF0
EEF0
0000
0000
0000
0000
0000
0000
0000
0000
0000
ENDCHAR

STARTCHAR n
ENCODING 110
SWIDTH 294 0
DWIDTH 10 0
BBX 10 36 0 -9
BITMAP
0000
0000
0000
0000
0000
0000
0000
0000
0000
0000
0000
0000
0000
D800
FC00
FC00
FC00
EC00
EC00
EC00
EC00
EC00
EC00
EE00
EE00
EE00
EE00
0000
0000
0000
0000
0000
0000
0000
0000
0000
ENDCHAR

STARTCHAR o
ENCODING 111
SWIDTH 235 0
DWIDTH 8 0
BBX 8 36 0 -9
BITMAP
00
00
00
00
00
00
00
00
00
00
00
00
00
78
FC
FC
FC
CC
CC
CC
CC
CC
FC
FC
FC
FC
78
00
00
00
00
00
00
00
00
00
ENDCHAR

STARTCHAR p
ENCODING 112
SWIDTH 264 0
DWIDTH 9 0
BBX 9 36 0 -9
BITMAP
0000
0000
0000
0000
0000
0000
0000
0000
0000
0000
0000
0000
0000
F800
FC00
FC00
FC00
CC00
CC00
CC00
CC00
CC00
CC00
FC00
FC00
FC00
F800
E000
E000
E000
E000
E000
0000
0000
0000
0000
ENDCHAR

STARTCHAR q
ENCODING 113
SWIDTH 264 0
DWIDTH 9 0
BBX 9 36 0 -9
BITMAP
0000
0000
0000
0000
0000
0000
0000
0000
0000
0000
0000
0000
0000
7C00
FC00
FC00
FC00
CC00
CC00
CC00
CC00
CC00
CC00
FC00
FC00
FC00
7C00
1C00
1C00
1C00
1C00
1C00
0000
0000
0000
0000
ENDCHAR

STARTCHAR r
ENCODING 114
SWIDTH 294 0
DWIDTH 10 0
BBX 10 36 0 -9
BITMAP
0000
0000
0000
0000
0000
0000
0000
0000
0000
0000
0000
0000
0000
F600
FF00
FF00
FF00
7300
7300
7000
7000
7000
7000
F800
F800
F800
F800
0000
0000
0000
0000
0000
0000
0000
0000
0000
ENDCHAR

STARTCHAR s
ENCODING 115
SWIDTH 294 0
DWIDTH 10 0
BBX 10 36 0 -9
BITMAP
0000
0000
0000
0000
0000
0000
0000
0000
0000
0000
0000
0000
0000
7C00
FE00
E600
E600
E000
E000
7000
3800
1C00
0E00
CE00
CE00
FE00
BC00
0000
0000
0000
0000
0000
0000
0000
0000
0000
ENDCHAR

STARTCHAR t
ENCODING 116
SWIDTH 264 0
DWIDTH 9 0
BBX 9 36 0 -9
BITMAP
0000
0000
0000
0000
0000
0000
0000
0000
0000
1000
3000
7000
7000
F800
F800
F800
F800
7000
7000
7000
7000
7000
7000
7000
7800
7800
3000
0000
0000
0000
0000
0000
0000
0000
0000
0000
ENDCHAR

STARTCHAR u
ENCODING 117
SWIDTH 352 0
DWIDTH 12 0
BBX 12 36 0 -9
BITMAP
0000
0000
0000
0000
0000
0000
0000
0000
0000
0000
0000
0000
0000
E700
E700
E700
E700
E700
E700
E700
E700
E700
E700
E700
FF80
FF80
7D80
0000
0000
0000
0000
0000
0000
0000
0000
0000
ENDCHAR

STARTCHAR v
ENCODING 118
SWIDTH 235 0
DWIDTH 8 0
BBX 8 36 0 -9
BITMAP
00
00
00
00
00
00
00
00
00
00
00
00
00
EE
EE
EE
EE
EE
EE
EE
EE
EE
6C
6C
7C
38
38
00
00
00
00
00
00
00
00
00
ENDCHAR

STARTCHAR w
ENCODING 119
SWIDTH 411 0
DWIDTH 14 0
BBX 14 36 0 -9
BITMAP
0000
0000
0000
0000
0000
0000
0000
0000
0000
0000
0000
0000
0000
E4E0
EEE0
EEE0
EEE0
EEE0
EEE0
EEE0
EEE0
7FC0
7FC0
7FC0
3B80
3B80
3B80
0000
0000
0000
0000
0000
0000
0000
0000
0000
ENDCHAR

STARTCHAR x
ENCODING 120
SWIDTH 294 0
DWIDTH 10 0
BBX 10 36 0 -9
BITMAP
0000
0000
0000
0000
0000
0000
0000
0000
0000
0000
0000
0000
0000
EE00
EE00
EE00
FE00
7C00
7C00
3800
3800
7800
7C00
FE00
EE00
EE00
EE00
0000
0000
0000
0000
0000
0000
0000
0000
0000
ENDCHAR

STARTCHAR y
ENCODING 121
SWIDTH 294 0
DWIDTH 10 0
BBX 10 36 0 -9
BITMAP
0000
0000
0000
0000
0000
0000
0000
0000
0000
0000
0000
0000
0000
EE00
EE00
EE00
EE00
EE00
6C00
6C00
6C00
7C00
7C00
3800
3800
3800
B800
F800
F800
F000
6000
0000
0000
0000
0000
0000
ENDCHAR

STARTCHAR z
ENCODING 122
SWIDTH 264 0
DWIDTH 9 0
BBX 9 36 0 -9
BITMAP
0000
0000
0000
0000
0000
0000
0000
0000
0000
0000
0000
0000
0000
FC00
FC00
FC00
FC00
DC00
1C00
3800
3000
7000
EC00
FC00
FC00
FC00
FC00
0000
0000
0000
0000
0000
0000
0000
0000
0000
ENDCHAR
ENDFONT
